<svg id="グループ_2" data-name="グループ 2" xmlns="http://www.w3.org/2000/svg" xmlns:xlink="http://www.w3.org/1999/xlink" width="555" height="555" viewBox="0 0 555 555">
  <defs>
    <style>
      .cls-1 {
        fill: #02004b;
        stroke: #040035;
        stroke-width: 1px;
      }

      .cls-2 {
        stroke: #fff;
        stroke-width: 0.4px;
        fill-rule: evenodd;
        fill: url(#linear-gradient);
      }

      .cls-3 {
        fill: #040035;
      }

      .cls-4 {
        font-size: 50px;
        fill: #acacac;
        font-family: Georgia;
      }
    </style>
    <linearGradient id="linear-gradient" x1="278" y1="545" x2="278" y2="10" gradientUnits="userSpaceOnUse">
      <stop offset="0"/>
      <stop offset="1" stop-color="#2e3e62"/>
    </linearGradient>
  </defs>
  <circle id="楕円形_1_のコピー_5" data-name="楕円形 1 のコピー 5" class="cls-1" cx="277.5" cy="277.5" r="276.5"/>
  <path id="線_1_のコピー_4" data-name="線 1 のコピー 4" class="cls-2" d="M9.864,278.115v-1.228H546.128v1.228H9.864ZM277.384,10h1.23v535h-1.23V10ZM87.965,88.334l0.868-.868,379.2,379.2-0.868.868Zm378.752-.422,0.869,0.87-378.3,378.3-0.87-.87ZM19.16,347.492l-0.318-1.185,517.992-138.8,0.317,1.185ZM208.17,19.273l1.189-.318L347.826,535.721l-1.188.318ZM45.48,143.964l0.614-1.062L510.512,411.034,509.9,412.1ZM411.217,45.529l1.066,0.615-267.5,463.32-1.066-.615ZM18.841,208.7l0.318-1.185,517.992,138.8-0.318,1.185ZM346.64,18.954l1.188,0.318L209.36,536.038l-1.188-.318ZM143.4,45.595l1.062-.614L412.6,509.4l-1.063.613Zm365.955,97.621,0.615,1.065L46.65,411.779l-0.615-1.065ZM9.864,278.115v-1.228H546.128v1.228H9.864ZM277.384,10h1.23v535h-1.23V10ZM143.4,45.595l1.062-.614L412.6,509.4l-1.063.613Zm365.955,97.621,0.615,1.065L46.65,411.779l-0.615-1.065Z"/>
  <circle id="楕円形_1_のコピー_6" data-name="楕円形 1 のコピー 6" class="cls-3" cx="277.5" cy="277.5" r="246.5"/>
  <text id="W" class="cls-4" x="1.488" y="294.78">W</text>
  <text id="E" class="cls-4" x="509.03" y="295.205">E</text>
  <text id="N" class="cls-4" x="258.02" y="49.671">N</text>
  <text id="S" class="cls-4" x="263.871" y="544.983">S</text>
</svg>
